<?xml version="1.0" encoding="utf-8"?>
<!-- Generator: Adobe Illustrator 22.0.1, SVG Export Plug-In . SVG Version: 6.00 Build 0)  -->
<!DOCTYPE svg PUBLIC "-//W3C//DTD SVG 1.1//EN" "http://www.w3.org/Graphics/SVG/1.1/DTD/svg11.dtd">
<svg version="1.1" id="Ebene_1" xmlns="http://www.w3.org/2000/svg" xmlns:xlink="http://www.w3.org/1999/xlink" x="0px" y="0px"
	 viewBox="0 0 1190.6 630.8" style="enable-background:new 0 0 1190.6 630.8;" xml:space="preserve">
<style type="text/css">
	.st0{fill:#B9D9F4;}
	.st1{fill:none;stroke:#706F6F;stroke-width:3;stroke-linecap:round;stroke-miterlimit:10;}
	.st2{fill:#1D71B8;}
	.st3{opacity:0.25;}
	.st4{fill:none;stroke:#575756;stroke-width:4;stroke-miterlimit:10;}
	.st5{fill:#7EA12A;}
	.st6{fill:#95C11F;stroke:#95C11F;stroke-width:3;stroke-miterlimit:10;}
	.st7{fill:#AAC934;}
	.st8{fill:#BBD14B;}
	.st9{fill:none;stroke:#3C3C3B;stroke-width:4;stroke-miterlimit:10;}
	.st10{fill:#E8D5B8;}
	.st11{fill:#9D9D9C;}
	.st12{fill:none;stroke:#1D71B8;stroke-width:5;stroke-miterlimit:10;}
</style>
<g>
	<path class="st0" d="M134,538.6c0-0.2-4.9-0.1-9.2-2.2c-4.8-2.2-9.3-6.6-9.3-6.8l-0.7-66.1c0-1.6,0.3-3.1,0.9-4.4
		c1.5-3.3-4-5.4-0.4-5.4l987-0.2c3.2,0-2.4,2-0.8,4.8c0.8,1.5,1.3,3.3,1.3,5.2l0.1,60.5l-4.2,7.8c0,0.5-15.2,5.7-15.2,6.2L134,538.6
		z"/>
	<path class="st1" d="M114.5,274.8l0.4,248.9c0,8.7,10.7,15.7,23.7,15.7l940.6-1.5c13,0,23.7-7.1,23.7-15.8l-0.4-248.9L114.5,274.8z
		"/>
	<g>
		<g>
			<path class="st2" d="M735.2,498.7c1.9-0.3,4.2-0.5,6.7-0.5c4.5,0,7.7,1,9.9,3c2.2,2,3.4,4.8,3.4,8.7c0,4-1.2,7.2-3.5,9.5
				c-2.3,2.3-6,3.5-10.8,3.5c-2.2,0-4.1-0.1-5.7-0.3V498.7z M738.4,520.3c0.8,0.1,2,0.2,3.2,0.2c6.7,0,10.4-3.8,10.4-10.3
				c0-5.7-3.2-9.4-9.9-9.4c-1.6,0-2.9,0.1-3.7,0.3V520.3z"/>
			<path class="st2" d="M775.2,513.9c0,6.5-4.5,9.3-8.7,9.3c-4.7,0-8.4-3.5-8.4-9c0-5.9,3.8-9.3,8.7-9.3
				C771.8,504.9,775.2,508.5,775.2,513.9z M761.3,514.1c0,3.8,2.2,6.7,5.3,6.7c3,0,5.3-2.9,5.3-6.8c0-3-1.5-6.7-5.2-6.7
				C762.9,507.3,761.3,510.7,761.3,514.1z"/>
			<path class="st2" d="M791.7,522.1c-0.8,0.4-2.7,1-5,1c-5.3,0-8.7-3.6-8.7-8.9c0-5.4,3.7-9.3,9.4-9.3c1.9,0,3.5,0.5,4.4,0.9
				l-0.7,2.5c-0.8-0.4-2-0.8-3.7-0.8c-4,0-6.2,3-6.2,6.6c0,4,2.6,6.5,6.1,6.5c1.8,0,3-0.5,3.9-0.9L791.7,522.1z"/>
			<path class="st2" d="M795.4,497.1h3.2V508h0.1c0.5-0.9,1.3-1.7,2.3-2.2c0.9-0.5,2.1-0.9,3.3-0.9c2.3,0,6.1,1.4,6.1,7.5v10.4h-3.2
				v-10c0-2.8-1-5.2-4-5.2c-2.1,0-3.7,1.4-4.3,3.2c-0.2,0.4-0.2,0.9-0.2,1.5v10.6h-3.2V497.1z"/>
			<path class="st2" d="M819.1,500.3v5h4.6v2.4h-4.6v9.4c0,2.2,0.6,3.4,2.4,3.4c0.8,0,1.4-0.1,1.8-0.2l0.1,2.4
				c-0.6,0.3-1.6,0.4-2.8,0.4c-1.5,0-2.7-0.5-3.4-1.3c-0.9-0.9-1.2-2.5-1.2-4.6v-9.5h-2.7v-2.4h2.7v-4.2L819.1,500.3z"/>
		</g>
	</g>
	<g>
		<g>
			<path class="st2" d="M148.8,594.9v-24.4h3.4l7.8,12.3c1.8,2.9,3.2,5.4,4.4,7.9l0.1,0c-0.3-3.3-0.4-6.2-0.4-10v-10.2h3v24.4h-3.2
				l-7.7-12.4c-1.7-2.7-3.3-5.5-4.6-8.1l-0.1,0c0.2,3.1,0.3,6,0.3,10v10.4H148.8z"/>
			<path class="st2" d="M182.2,594.9l-0.3-2.2h-0.1c-1,1.4-2.9,2.6-5.3,2.6c-3.5,0-5.4-2.5-5.4-5c0-4.2,3.8-6.5,10.5-6.5v-0.4
				c0-1.4-0.4-4-4-4c-1.6,0-3.3,0.5-4.6,1.3l-0.7-2.1c1.4-0.9,3.5-1.6,5.7-1.6c5.4,0,6.7,3.7,6.7,7.2v6.5c0,1.5,0.1,3,0.3,4.2H182.2
				z M173.4,572.5c0-1,0.8-1.8,1.8-1.8s1.8,0.8,1.8,1.8c0,1-0.7,1.8-1.8,1.8C174.1,574.3,173.4,573.5,173.4,572.5z M181.7,586
				c-3.5-0.1-7.4,0.5-7.4,3.9c0,2.1,1.4,3,3,3c2.3,0,3.7-1.4,4.2-2.9c0.1-0.3,0.2-0.7,0.2-1V586z M180.1,572.5c0-1,0.8-1.8,1.8-1.8
				c1,0,1.8,0.8,1.8,1.8c0,1-0.7,1.8-1.8,1.8C180.8,574.3,180.1,573.5,180.1,572.5z"/>
			<path class="st2" d="M189.9,569.3h3.2v10.9h0.1c0.5-0.9,1.3-1.7,2.3-2.2c0.9-0.5,2.1-0.9,3.3-0.9c2.3,0,6.1,1.4,6.1,7.5v10.4
				h-3.2v-10c0-2.8-1-5.2-4-5.2c-2.1,0-3.7,1.4-4.3,3.2c-0.2,0.4-0.2,0.9-0.2,1.5v10.6h-3.2V569.3z"/>
			<path class="st2" d="M210,582.9c0-2.1,0-3.8-0.1-5.5h2.8l0.1,3.4h0.1c0.8-2.3,2.7-3.8,4.8-3.8c0.4,0,0.6,0,0.9,0.1v3
				c-0.3-0.1-0.7-0.1-1.1-0.1c-2.2,0-3.8,1.7-4.3,4.1c-0.1,0.4-0.1,0.9-0.1,1.5v9.3H210V582.9z"/>
			<path class="st2" d="M221.3,591.7c0.9,0.6,2.6,1.3,4.2,1.3c2.3,0,3.4-1.2,3.4-2.6c0-1.5-0.9-2.3-3.3-3.2c-3.1-1.1-4.6-2.9-4.6-5
				c0-2.8,2.3-5.1,6-5.1c1.8,0,3.3,0.5,4.3,1.1l-0.8,2.3c-0.7-0.4-2-1-3.6-1c-1.9,0-2.9,1.1-2.9,2.4c0,1.4,1,2.1,3.3,3
				c3,1.2,4.6,2.7,4.6,5.3c0,3.1-2.4,5.2-6.5,5.2c-1.9,0-3.7-0.5-4.9-1.2L221.3,591.7z"/>
			<path class="st2" d="M239.9,572.4v5h4.6v2.4h-4.6v9.4c0,2.2,0.6,3.4,2.4,3.4c0.8,0,1.4-0.1,1.8-0.2l0.1,2.4
				c-0.6,0.3-1.6,0.4-2.8,0.4c-1.5,0-2.7-0.5-3.4-1.3c-0.9-0.9-1.2-2.5-1.2-4.6v-9.5h-2.7v-2.4h2.7v-4.2L239.9,572.4z"/>
			<path class="st2" d="M263.7,586c0,6.5-4.5,9.3-8.7,9.3c-4.7,0-8.4-3.5-8.4-9c0-5.9,3.8-9.3,8.7-9.3
				C260.3,577,263.7,580.7,263.7,586z M249.8,586.2c0,3.8,2.2,6.7,5.3,6.7c3,0,5.3-2.9,5.3-6.8c0-3-1.5-6.7-5.2-6.7
				C251.4,579.4,249.8,582.9,249.8,586.2z"/>
			<path class="st2" d="M278.5,594.9v-15.1h-7.3v15.1H268v-15.1h-2.5v-2.4h2.5v-0.6c0-2.5,0.6-4.6,2-6c1-1,2.5-1.6,4.4-1.6
				c1,0,2,0.3,2.5,0.6l-0.7,2.3c-0.5-0.2-1.2-0.4-1.9-0.4c-2.5,0-3.2,2.1-3.2,4.9v0.8h7.3v-0.8c0-2.5,0.6-4.7,2.1-6.1
				c1.2-1.2,2.8-1.6,4.2-1.6c1.2,0,2.1,0.3,2.7,0.5l-0.4,2.5c-0.5-0.2-1.1-0.4-2.1-0.4c-2.7,0-3.4,2.4-3.4,5.1v0.9h4.2v2.4h-4.2
				v15.1H278.5z"/>
			<path class="st2" d="M290,577.4l3.4,9.8c0.6,1.6,1,3,1.4,4.5h0.1c0.4-1.4,0.9-2.9,1.5-4.5l3.4-9.8h3.3l-6.9,17.5h-3l-6.7-17.5
				H290z"/>
			<path class="st2" d="M321.6,586c0,6.5-4.5,9.3-8.7,9.3c-4.7,0-8.4-3.5-8.4-9c0-5.9,3.8-9.3,8.7-9.3
				C318.2,577,321.6,580.7,321.6,586z M307.8,586.2c0,3.8,2.2,6.7,5.3,6.7c3,0,5.3-2.9,5.3-6.8c0-3-1.5-6.7-5.2-6.7
				C309.4,579.4,307.8,582.9,307.8,586.2z"/>
			<path class="st2" d="M325.6,582.9c0-2.1,0-3.8-0.1-5.5h2.8l0.1,3.4h0.1c0.8-2.3,2.7-3.8,4.8-3.8c0.4,0,0.6,0,0.9,0.1v3
				c-0.3-0.1-0.7-0.1-1.1-0.1c-2.2,0-3.8,1.7-4.3,4.1c-0.1,0.4-0.1,0.9-0.1,1.5v9.3h-3.1V582.9z"/>
			<path class="st2" d="M337.6,582.9c0-2.1,0-3.8-0.1-5.5h2.8l0.1,3.4h0.1c0.8-2.3,2.7-3.8,4.8-3.8c0.4,0,0.6,0,0.9,0.1v3
				c-0.3-0.1-0.7-0.1-1.1-0.1c-2.2,0-3.8,1.7-4.3,4.1c-0.1,0.4-0.1,0.9-0.1,1.5v9.3h-3.1V582.9z"/>
			<path class="st2" d="M358.9,594.9l-0.3-2.2h-0.1c-1,1.4-2.9,2.6-5.3,2.6c-3.5,0-5.4-2.5-5.4-5c0-4.2,3.8-6.5,10.5-6.5v-0.4
				c0-1.4-0.4-4-4-4c-1.6,0-3.3,0.5-4.6,1.3l-0.7-2.1c1.4-0.9,3.5-1.6,5.7-1.6c5.4,0,6.7,3.7,6.7,7.2v6.5c0,1.5,0.1,3,0.3,4.2H358.9
				z M358.5,586c-3.5-0.1-7.4,0.5-7.4,3.9c0,2.1,1.4,3,3,3c2.3,0,3.7-1.4,4.2-2.9c0.1-0.3,0.2-0.7,0.2-1V586z"/>
			<path class="st2" d="M370.4,572.4v5h4.6v2.4h-4.6v9.4c0,2.2,0.6,3.4,2.4,3.4c0.8,0,1.4-0.1,1.8-0.2l0.1,2.4
				c-0.6,0.3-1.6,0.4-2.8,0.4c-1.5,0-2.7-0.5-3.4-1.3c-0.9-0.9-1.2-2.5-1.2-4.6v-9.5h-2.7v-2.4h2.7v-4.2L370.4,572.4z"/>
			<path class="st2" d="M378.1,591.7c0.9,0.6,2.6,1.3,4.2,1.3c2.3,0,3.4-1.2,3.4-2.6c0-1.5-0.9-2.3-3.3-3.2c-3.1-1.1-4.6-2.9-4.6-5
				c0-2.8,2.3-5.1,6-5.1c1.8,0,3.3,0.5,4.3,1.1l-0.8,2.3c-0.7-0.4-2-1-3.6-1c-1.9,0-2.9,1.1-2.9,2.4c0,1.4,1,2.1,3.3,3
				c3,1.2,4.6,2.7,4.6,5.3c0,3.1-2.4,5.2-6.5,5.2c-1.9,0-3.7-0.5-4.9-1.2L378.1,591.7z"/>
			<path class="st2" d="M392.7,594.9c0.1-1.2,0.1-3,0.1-4.5v-21.1h3.1v11h0.1c1.1-2,3.1-3.2,6-3.2c4.3,0,7.4,3.6,7.4,8.9
				c0,6.3-3.9,9.4-7.8,9.4c-2.5,0-4.6-1-5.9-3.3h-0.1l-0.1,2.9H392.7z M396,587.9c0,0.4,0.1,0.8,0.1,1.2c0.6,2.2,2.5,3.7,4.8,3.7
				c3.3,0,5.3-2.7,5.3-6.7c0-3.5-1.8-6.5-5.2-6.5c-2.2,0-4.2,1.5-4.8,3.9c-0.1,0.4-0.2,0.8-0.2,1.3V587.9z"/>
			<path class="st2" d="M415.2,586.8c0.1,4.3,2.8,6.1,6,6.1c2.3,0,3.7-0.4,4.8-0.9l0.5,2.3c-1.1,0.5-3,1.1-5.8,1.1
				c-5.4,0-8.6-3.5-8.6-8.8c0-5.3,3.1-9.4,8.2-9.4c5.7,0,7.2,5,7.2,8.2c0,0.7-0.1,1.2-0.1,1.5H415.2z M424.5,584.5
				c0-2-0.8-5.2-4.4-5.2c-3.2,0-4.6,3-4.9,5.2H424.5z"/>
			<path class="st2" d="M431.5,569.3h3.2v10.9h0.1c0.5-0.9,1.3-1.7,2.3-2.2c0.9-0.5,2.1-0.9,3.3-0.9c2.3,0,6.1,1.4,6.1,7.5v10.4
				h-3.2v-10c0-2.8-1-5.2-4-5.2c-2.1,0-3.7,1.4-4.3,3.2c-0.2,0.4-0.2,0.9-0.2,1.5v10.6h-3.2V569.3z"/>
			<path class="st2" d="M461.3,594.9l-0.3-2.2h-0.1c-1,1.4-2.9,2.6-5.3,2.6c-3.5,0-5.4-2.5-5.4-5c0-4.2,3.8-6.5,10.5-6.5v-0.4
				c0-1.4-0.4-4-4-4c-1.6,0-3.3,0.5-4.6,1.3l-0.7-2.1c1.4-0.9,3.5-1.6,5.7-1.6c5.4,0,6.7,3.7,6.7,7.2v6.5c0,1.5,0.1,3,0.3,4.2H461.3
				z M452.5,572.5c0-1,0.8-1.8,1.8-1.8s1.8,0.8,1.8,1.8c0,1-0.7,1.8-1.8,1.8C453.2,574.3,452.5,573.5,452.5,572.5z M460.8,586
				c-3.5-0.1-7.4,0.5-7.4,3.9c0,2.1,1.4,3,3,3c2.3,0,3.7-1.4,4.2-2.9c0.1-0.3,0.2-0.7,0.2-1V586z M459.2,572.5c0-1,0.8-1.8,1.8-1.8
				c1,0,1.8,0.8,1.8,1.8c0,1-0.7,1.8-1.8,1.8C459.9,574.3,459.2,573.5,459.2,572.5z"/>
			<path class="st2" d="M469,569.3h3.2v25.7H469V569.3z"/>
			<path class="st2" d="M481.4,572.4v5h4.6v2.4h-4.6v9.4c0,2.2,0.6,3.4,2.4,3.4c0.8,0,1.4-0.1,1.8-0.2l0.1,2.4
				c-0.6,0.3-1.6,0.4-2.8,0.4c-1.5,0-2.7-0.5-3.4-1.3c-0.9-0.9-1.2-2.5-1.2-4.6v-9.5h-2.7v-2.4h2.7v-4.2L481.4,572.4z"/>
			<path class="st2" d="M491,586.8c0.1,4.3,2.8,6.1,6,6.1c2.3,0,3.7-0.4,4.8-0.9l0.5,2.3c-1.1,0.5-3,1.1-5.8,1.1
				c-5.4,0-8.6-3.5-8.6-8.8c0-5.3,3.1-9.4,8.2-9.4c5.7,0,7.2,5,7.2,8.2c0,0.7-0.1,1.2-0.1,1.5H491z M500.4,584.5
				c0-2-0.8-5.2-4.4-5.2c-3.2,0-4.6,3-4.9,5.2H500.4z"/>
			<path class="st2" d="M507.4,582.9c0-2.1,0-3.8-0.1-5.5h2.8l0.1,3.4h0.1c0.8-2.3,2.7-3.8,4.8-3.8c0.4,0,0.6,0,0.9,0.1v3
				c-0.3-0.1-0.7-0.1-1.1-0.1c-2.2,0-3.8,1.7-4.3,4.1c-0.1,0.4-0.1,0.9-0.1,1.5v9.3h-3.1V582.9z"/>
		</g>
	</g>
	<g class="st3">
		<path class="st2" d="M1026,495.8c-2.5,0-2.5,3.9,0,3.9C1028.5,499.7,1028.5,495.8,1026,495.8z"/>
		<path class="st2" d="M997.7,498.2c-2.5,0-2.5,3.9,0,3.9C1000.2,502.1,1000.2,498.2,997.7,498.2z"/>
		<path class="st2" d="M986.4,478.7c-2.5,0-2.5,3.9,0,3.9C989,482.6,989,478.7,986.4,478.7z"/>
		<path class="st2" d="M955.2,482.1c-2.5,0-2.5,3.9,0,3.9C957.7,486,957.7,482.1,955.2,482.1z"/>
		<path class="st2" d="M935.7,499.7c-2.5,0-2.5,3.9,0,3.9C938.2,503.6,938.2,499.7,935.7,499.7z"/>
		<path class="st2" d="M901,505c-2.5,0-2.5,3.9,0,3.9C903.6,509,903.6,505,901,505z"/>
		<path class="st2" d="M882,493.3c-2.5,0-2.5,3.9,0,3.9C884.5,497.2,884.5,493.3,882,493.3z"/>
		<path class="st2" d="M884.5,479.7c-2.5,0-2.5,3.9,0,3.9C887,483.6,887,479.7,884.5,479.7z"/>
		<path class="st2" d="M899.6,476.2c-2.5,0-2.5,3.9,0,3.9C902.1,480.2,902.1,476.2,899.6,476.2z"/>
		<path class="st2" d="M917.1,488c-2.5,0-2.5,3.9,0,3.9C919.7,491.9,919.7,488,917.1,488z"/>
		<path class="st2" d="M1022.1,475.3c-2.5,0-2.5,3.9,0,3.9C1024.6,479.2,1024.6,475.3,1022.1,475.3z"/>
		<path class="st2" d="M1071.9,485c-2.5,0-2.5,3.9,0,3.9C1074.4,489,1074.4,485,1071.9,485z"/>
		<path class="st2" d="M1095.3,477.2c-2.5,0-2.5,3.9,0,3.9C1097.8,481.1,1097.8,477.2,1095.3,477.2z"/>
		<path class="st2" d="M1094.3,504.5c-2.5,0-2.5,3.9,0,3.9C1096.8,508.5,1096.8,504.5,1094.3,504.5z"/>
		<path class="st2" d="M1059.2,508.4c-2.5,0-2.5,3.9,0,3.9C1061.7,512.4,1061.7,508.4,1059.2,508.4z"/>
		<path class="st2" d="M1046,488c-2.5,0-2.5,3.9,0,3.9C1048.5,491.9,1048.5,488,1046,488z"/>
		<path class="st2" d="M1046.5,472.3c-2.5,0-2.5,3.9,0,3.9C1049,476.3,1049,472.3,1046.5,472.3z"/>
		<path class="st2" d="M1009.4,485.5c-2.5,0-2.5,3.9,0,3.9C1011.9,489.4,1011.9,485.5,1009.4,485.5z"/>
		<path class="st2" d="M969.4,494.8c-2.5,0-2.5,3.9,0,3.9C971.9,498.7,971.9,494.8,969.4,494.8z"/>
		<path class="st2" d="M966.4,512.4c-2.5,0-2.5,3.9,0,3.9C969,516.3,969,512.4,966.4,512.4z"/>
		<path class="st2" d="M1001.1,511.9c-2.5,0-2.5,3.9,0,3.9C1003.6,515.8,1003.6,511.9,1001.1,511.9z"/>
		<path class="st2" d="M1028.9,507.5c-2.5,0-2.5,3.9,0,3.9C1031.4,511.4,1031.4,507.5,1028.9,507.5z"/>
		<path class="st2" d="M931.8,478.2c-2.5,0-2.5,3.9,0,3.9C934.3,482.1,934.3,478.2,931.8,478.2z"/>
		<path class="st2" d="M920.6,510.4c-2.5,0-2.5,3.9,0,3.9C923.1,514.3,923.1,510.4,920.6,510.4z"/>
		<path class="st2" d="M957.7,498.2c-2.5,0-2.5,3.9,0,3.9C960.2,502.1,960.2,498.2,957.7,498.2z"/>
		<path class="st2" d="M947.4,509.9c-2.5,0-2.5,3.9,0,3.9C949.9,513.8,949.9,509.9,947.4,509.9z"/>
		<path class="st2" d="M869.8,505.5c-2.5,0-2.5,3.9,0,3.9C872.3,509.4,872.3,505.5,869.8,505.5z"/>
		<path class="st2" d="M844.4,504.5c-2.5,0-2.5,3.9,0,3.9C847,508.5,847,504.5,844.4,504.5z"/>
		<path class="st2" d="M844.9,488.4c-2.5,0-2.5,3.9,0,3.9C847.4,492.4,847.5,488.4,844.9,488.4z"/>
		<path class="st2" d="M843.9,470.9c-2.5,0-2.5,3.9,0,3.9C846.5,474.8,846.5,470.9,843.9,470.9z"/>
		<path class="st2" d="M825.4,477.7c-2.5,0-2.5,3.9,0,3.9C827.9,481.6,827.9,477.7,825.4,477.7z"/>
		<path class="st2" d="M812.7,470.4c-2.5,0-2.5,3.9,0,3.9C815.2,474.3,815.2,470.4,812.7,470.4z"/>
		<path class="st2" d="M823.4,494.8c-2.5,0-2.5,3.9,0,3.9C826,498.7,826,494.8,823.4,494.8z"/>
		<path class="st2" d="M803,489.9c-2.5,0-2.5,3.9,0,3.9C805.5,493.8,805.5,489.9,803,489.9z"/>
		<path class="st2" d="M795.6,474.3c-2.5,0-2.5,3.9,0,3.9C798.2,478.2,798.2,474.3,795.6,474.3z"/>
		<path class="st2" d="M825.4,509.4c-2.5,0-2.5,3.9,0,3.9C827.9,513.4,827.9,509.4,825.4,509.4z"/>
		<path class="st2" d="M806.9,511.4c-2.5,0-2.5,3.9,0,3.9C809.4,515.3,809.4,511.4,806.9,511.4z"/>
		<path class="st2" d="M852.2,512.8c-2.5,0-2.5,3.9,0,3.9C854.8,516.8,854.8,512.8,852.2,512.8z"/>
		<path class="st2" d="M856.6,502.1c-2.5,0-2.5,3.9,0,3.9C859.2,506,859.2,502.1,856.6,502.1z"/>
		<path class="st2" d="M888.4,513.8c-2.5,0-2.5,3.9,0,3.9C890.9,517.7,890.9,513.8,888.4,513.8z"/>
		<path class="st2" d="M970.3,474.8c-2.5,0-2.5,3.9,0,3.9C972.9,478.7,972.9,474.8,970.3,474.8z"/>
		<path class="st2" d="M529.7,467.9c-2.5,0-2.5,3.9,0,3.9C532.2,471.9,532.2,467.9,529.7,467.9z"/>
		<path class="st2" d="M549.2,475.8c-2.5,0-2.5,3.9,0,3.9C551.7,479.7,551.7,475.8,549.2,475.8z"/>
		<path class="st2" d="M549.2,488c-2.5,0-2.5,3.9,0,3.9C551.7,491.9,551.7,488,549.2,488z"/>
		<path class="st2" d="M539.9,508.4c-2.5,0-2.5,3.9,0,3.9C542.4,512.4,542.4,508.4,539.9,508.4z"/>
		<path class="st2" d="M558.9,510.9c-2.5,0-2.5,3.9,0,3.9C561.5,514.8,561.5,510.9,558.9,510.9z"/>
		<path class="st2" d="M576.5,497.7c-2.5,0-2.5,3.9,0,3.9C579,501.6,579,497.7,576.5,497.7z"/>
		<path class="st2" d="M536,483.1c-2.5,0-2.5,3.9,0,3.9C538.5,487,538.5,483.1,536,483.1z"/>
		<path class="st2" d="M565.3,475.8c-2.5,0-2.5,3.9,0,3.9C567.8,479.7,567.8,475.8,565.3,475.8z"/>
		<path class="st2" d="M598.5,477.2c-2.5,0-2.5,3.9,0,3.9C601,481.1,601,477.2,598.5,477.2z"/>
		<path class="st2" d="M600.9,493.8c-2.5,0-2.5,3.9,0,3.9C603.4,497.7,603.4,493.8,600.9,493.8z"/>
		<path class="st2" d="M588.2,511.9c-2.5,0-2.5,3.9,0,3.9C590.8,515.8,590.8,511.9,588.2,511.9z"/>
		<path class="st2" d="M580.4,488.4c-2.5,0-2.5,3.9,0,3.9C582.9,492.4,582.9,488.4,580.4,488.4z"/>
		<path class="st2" d="M617.5,474.8c-2.5,0-2.5,3.9,0,3.9C620,478.7,620,474.8,617.5,474.8z"/>
		<path class="st2" d="M628.2,494.8c-2.5,0-2.5,3.9,0,3.9C630.8,498.7,630.8,494.8,628.2,494.8z"/>
		<path class="st2" d="M616,510.4c-2.5,0-2.5,3.9,0,3.9C618.6,514.3,618.6,510.4,616,510.4z"/>
		<path class="st2" d="M612.6,493.3c-2.5,0-2.5,3.9,0,3.9C615.2,497.2,615.2,493.3,612.6,493.3z"/>
		<path class="st2" d="M649.2,476.7c-2.5,0-2.5,3.9,0,3.9C651.8,480.7,651.8,476.7,649.2,476.7z"/>
		<path class="st2" d="M655.6,504.5c-2.5,0-2.5,3.9,0,3.9C658.1,508.5,658.1,504.5,655.6,504.5z"/>
		<path class="st2" d="M669.7,482.1c-2.5,0-2.5,3.9,0,3.9C672.3,486,672.3,482.1,669.7,482.1z"/>
		<path class="st2" d="M675.1,501.6c-2.5,0-2.5,3.9,0,3.9C677.6,505.5,677.6,501.6,675.1,501.6z"/>
		<path class="st2" d="M635.6,511.4c-2.5,0-2.5,3.9,0,3.9C638.1,515.3,638.1,511.4,635.6,511.4z"/>
		<path class="st2" d="M647.8,490.4c-2.5,0-2.5,3.9,0,3.9C650.3,494.3,650.3,490.4,647.8,490.4z"/>
		<path class="st2" d="M660.5,493.8c-2.5,0-2.5,3.9,0,3.9C663,497.7,663,493.8,660.5,493.8z"/>
		<path class="st2" d="M630.7,477.7c-2.5,0-2.5,3.9,0,3.9C633.2,481.6,633.2,477.7,630.7,477.7z"/>
		<path class="st2" d="M580.4,470.9c-2.5,0-2.5,3.9,0,3.9C582.9,474.8,582.9,470.9,580.4,470.9z"/>
		<path class="st2" d="M544.3,495.8c-2.5,0-2.5,3.9,0,3.9C546.8,499.7,546.8,495.8,544.3,495.8z"/>
		<path class="st2" d="M703.9,501.6c-2.5,0-2.5,3.9,0,3.9C706.4,505.5,706.4,501.6,703.9,501.6z"/>
		<path class="st2" d="M679,469.4c-2.5,0-2.5,3.9,0,3.9C681.5,473.3,681.5,469.4,679,469.4z"/>
		<path class="st2" d="M680,483.1c-2.5,0-2.5,3.9,0,3.9C682.5,487,682.5,483.1,680,483.1z"/>
		<path class="st2" d="M690.2,507.5c-2.5,0-2.5,3.9,0,3.9C692.7,511.4,692.8,507.5,690.2,507.5z"/>
		<path class="st2" d="M691.7,498.2c-2.5,0-2.5,3.9,0,3.9C694.2,502.1,694.2,498.2,691.7,498.2z"/>
		<path class="st2" d="M700,491.4c-2.5,0-2.5,3.9,0,3.9C702.5,495.3,702.5,491.4,700,491.4z"/>
		<path class="st2" d="M691.2,478.2c-2.5,0-2.5,3.9,0,3.9C693.7,482.1,693.7,478.2,691.2,478.2z"/>
		<path class="st2" d="M709.3,484.5c-2.5,0-2.5,3.9,0,3.9C711.8,488.5,711.8,484.5,709.3,484.5z"/>
		<path class="st2" d="M720,493.8c-2.5,0-2.5,3.9,0,3.9C722.5,497.7,722.5,493.8,720,493.8z"/>
		<path class="st2" d="M732.7,494.8c-2.5,0-2.5,3.9,0,3.9C735.2,498.7,735.2,494.8,732.7,494.8z"/>
		<path class="st2" d="M743.4,486c-2.5,0-2.5,3.9,0,3.9C745.9,489.9,745.9,486,743.4,486z"/>
		<path class="st2" d="M755.6,472.8c-2.5,0-2.5,3.9,0,3.9C758.1,476.7,758.1,472.8,755.6,472.8z"/>
		<path class="st2" d="M755.6,489.4c-2.5,0-2.5,3.9,0,3.9C758.1,493.3,758.1,489.4,755.6,489.4z"/>
		<path class="st2" d="M764.4,480.6c-2.5,0-2.5,3.9,0,3.9C766.9,484.6,766.9,480.6,764.4,480.6z"/>
		<path class="st2" d="M745.4,508.9c-2.5,0-2.5,3.9,0,3.9C747.9,512.9,747.9,508.9,745.4,508.9z"/>
		<path class="st2" d="M726.8,512.8c-2.5,0-2.5,3.9,0,3.9C729.3,516.8,729.4,512.8,726.8,512.8z"/>
		<path class="st2" d="M710.7,511.4c-2.5,0-2.5,3.9,0,3.9C713.2,515.3,713.2,511.4,710.7,511.4z"/>
		<path class="st2" d="M672.2,512.8c-2.5,0-2.5,3.9,0,3.9C674.7,516.8,674.7,512.8,672.2,512.8z"/>
		<path class="st2" d="M745.9,500.6c-2.5,0-2.5,3.9,0,3.9C748.4,504.6,748.4,500.6,745.9,500.6z"/>
		<path class="st2" d="M771.7,513.8c-2.5,0-2.5,3.9,0,3.9C774.2,517.7,774.3,513.8,771.7,513.8z"/>
		<path class="st2" d="M769.4,501.2l-0.5,0.5c-1.8,1.8,1,4.6,2.8,2.8c0.2-0.2,0.3-0.3,0.5-0.5C773.9,502.2,771.1,499.4,769.4,501.2z
			"/>
		<path class="st2" d="M775.6,485c-2.5,0-2.5,3.9,0,3.9C778.2,489,778.2,485,775.6,485z"/>
		<path class="st2" d="M780,495.3c-2.5,0-2.5,3.9,0,3.9C782.5,499.2,782.5,495.3,780,495.3z"/>
		<path class="st2" d="M778.6,508c-2.5,0-2.5,3.9,0,3.9C781.1,511.9,781.1,508,778.6,508z"/>
		<path class="st2" d="M794.7,502.6c-2.5,0-2.5,3.9,0,3.9C797.2,506.5,797.2,502.6,794.7,502.6z"/>
	</g>
	<g class="st3">
		<path class="st2" d="M487.5,495c-2.5,0-2.5,3.9,0,3.9C490,498.9,490,495,487.5,495z"/>
		<path class="st2" d="M459.2,497.4c-2.5,0-2.5,3.9,0,3.9C461.7,501.3,461.7,497.4,459.2,497.4z"/>
		<path class="st2" d="M447.9,477.9c-2.5,0-2.5,3.9,0,3.9C450.5,481.8,450.5,477.9,447.9,477.9z"/>
		<path class="st2" d="M416.7,481.3c-2.5,0-2.5,3.9,0,3.9C419.2,485.2,419.2,481.3,416.7,481.3z"/>
		<path class="st2" d="M397.2,498.9c-2.5,0-2.5,3.9,0,3.9C399.7,502.8,399.7,498.9,397.2,498.9z"/>
		<path class="st2" d="M362.5,504.2c-2.5,0-2.5,3.9,0,3.9C365.1,508.2,365.1,504.2,362.5,504.2z"/>
		<path class="st2" d="M343.5,492.5c-2.5,0-2.5,3.9,0,3.9C346,496.5,346,492.5,343.5,492.5z"/>
		<path class="st2" d="M345.9,478.9c-2.5,0-2.5,3.9,0,3.9C348.5,482.8,348.5,478.9,345.9,478.9z"/>
		<path class="st2" d="M361.1,475.5c-2.5,0-2.5,3.9,0,3.9C363.6,479.4,363.6,475.5,361.1,475.5z"/>
		<path class="st2" d="M378.6,487.2c-2.5,0-2.5,3.9,0,3.9C381.2,491.1,381.2,487.2,378.6,487.2z"/>
		<path class="st2" d="M483.6,474.5c-2.5,0-2.5,3.9,0,3.9C486.1,478.4,486.1,474.5,483.6,474.5z"/>
		<path class="st2" d="M556.8,476.4c-2.5,0-2.5,3.9,0,3.9C559.3,480.4,559.3,476.4,556.8,476.4z"/>
		<path class="st2" d="M555.8,503.8c-2.5,0-2.5,3.9,0,3.9C558.3,507.7,558.3,503.8,555.8,503.8z"/>
		<path class="st2" d="M520.7,507.7c-2.5,0-2.5,3.9,0,3.9C523.2,511.6,523.2,507.7,520.7,507.7z"/>
		<path class="st2" d="M507.5,487.2c-2.5,0-2.5,3.9,0,3.9C510,491.1,510,487.2,507.5,487.2z"/>
		<path class="st2" d="M508,471.5c-2.5,0-2.5,3.9,0,3.9C510.5,475.5,510.5,471.5,508,471.5z"/>
		<path class="st2" d="M470.9,484.7c-2.5,0-2.5,3.9,0,3.9C473.4,488.7,473.4,484.7,470.9,484.7z"/>
		<path class="st2" d="M430.9,494c-2.5,0-2.5,3.9,0,3.9C433.4,497.9,433.4,494,430.9,494z"/>
		<path class="st2" d="M427.9,511.6c-2.5,0-2.5,3.9,0,3.9C430.5,515.5,430.5,511.6,427.9,511.6z"/>
		<path class="st2" d="M462.6,511.1c-2.5,0-2.5,3.9,0,3.9C465.1,515,465.1,511.1,462.6,511.1z"/>
		<path class="st2" d="M490.4,506.7c-2.5,0-2.5,3.9,0,3.9C492.9,510.6,492.9,506.7,490.4,506.7z"/>
		<path class="st2" d="M393.3,477.4c-2.5,0-2.5,3.9,0,3.9C395.8,481.3,395.8,477.4,393.3,477.4z"/>
		<path class="st2" d="M382.1,509.6c-2.5,0-2.5,3.9,0,3.9C384.6,513.5,384.6,509.6,382.1,509.6z"/>
		<path class="st2" d="M419.1,497.4c-2.5,0-2.5,3.9,0,3.9C421.7,501.3,421.7,497.4,419.1,497.4z"/>
		<path class="st2" d="M408.9,509.1c-2.5,0-2.5,3.9,0,3.9C411.4,513.1,411.4,509.1,408.9,509.1z"/>
		<path class="st2" d="M331.3,504.7c-2.5,0-2.5,3.9,0,3.9C333.8,508.7,333.8,504.7,331.3,504.7z"/>
		<path class="st2" d="M305.9,503.8c-2.5,0-2.5,3.9,0,3.9C308.5,507.7,308.5,503.8,305.9,503.8z"/>
		<path class="st2" d="M306.4,487.7c-2.5,0-2.5,3.9,0,3.9C308.9,491.6,308.9,487.7,306.4,487.7z"/>
		<path class="st2" d="M305.4,470.1c-2.5,0-2.5,3.9,0,3.9C308,474,308,470.1,305.4,470.1z"/>
		<path class="st2" d="M286.9,476.9c-2.5,0-2.5,3.9,0,3.9C289.4,480.8,289.4,476.9,286.9,476.9z"/>
		<path class="st2" d="M274.2,469.6c-2.5,0-2.5,3.9,0,3.9C276.7,473.5,276.7,469.6,274.2,469.6z"/>
		<path class="st2" d="M284.9,494c-2.5,0-2.5,3.9,0,3.9C287.5,497.9,287.5,494,284.9,494z"/>
		<path class="st2" d="M264.4,489.1c-2.5,0-2.5,3.9,0,3.9C267,493,267,489.1,264.4,489.1z"/>
		<path class="st2" d="M257.1,473.5c-2.5,0-2.5,3.9,0,3.9C259.7,477.4,259.7,473.5,257.1,473.5z"/>
		<path class="st2" d="M286.9,508.6c-2.5,0-2.5,3.9,0,3.9C289.4,512.6,289.4,508.6,286.9,508.6z"/>
		<path class="st2" d="M268.4,510.6c-2.5,0-2.5,3.9,0,3.9C270.9,514.5,270.9,510.6,268.4,510.6z"/>
		<path class="st2" d="M313.7,512.1c-2.5,0-2.5,3.9,0,3.9C316.3,516,316.3,512.1,313.7,512.1z"/>
		<path class="st2" d="M318.1,501.3c-2.5,0-2.5,3.9,0,3.9C320.7,505.2,320.7,501.3,318.1,501.3z"/>
		<path class="st2" d="M349.9,513c-2.5,0-2.5,3.9,0,3.9C352.4,517,352.4,513,349.9,513z"/>
		<path class="st2" d="M431.8,474c-2.5,0-2.5,3.9,0,3.9C434.4,477.9,434.4,474,431.8,474z"/>
		<path class="st2" d="M131.2,481.3c-2.5,0-2.5,3.9,0,3.9C133.7,485.2,133.7,481.3,131.2,481.3z"/>
		<path class="st2" d="M136.6,500.8c-2.5,0-2.5,3.9,0,3.9C139.1,504.8,139.1,500.8,136.6,500.8z"/>
		<path class="st2" d="M121.9,493c-2.5,0-2.5,3.9,0,3.9C124.5,496.9,124.5,493,121.9,493z"/>
		<path class="st2" d="M165.4,500.8c-2.5,0-2.5,3.9,0,3.9C167.9,504.8,167.9,500.8,165.4,500.8z"/>
		<path class="st2" d="M140.5,468.6c-2.5,0-2.5,3.9,0,3.9C143,472.5,143,468.6,140.5,468.6z"/>
		<path class="st2" d="M141.5,482.3c-2.5,0-2.5,3.9,0,3.9C144,486.2,144,482.3,141.5,482.3z"/>
		<path class="st2" d="M151.7,506.7c-2.5,0-2.5,3.9,0,3.9C154.2,510.6,154.2,506.7,151.7,506.7z"/>
		<path class="st2" d="M153.2,497.4c-2.5,0-2.5,3.9,0,3.9C155.7,501.3,155.7,497.4,153.2,497.4z"/>
		<path class="st2" d="M161.5,490.6c-2.5,0-2.5,3.9,0,3.9C164,494.5,164,490.6,161.5,490.6z"/>
		<path class="st2" d="M152.7,477.4c-2.5,0-2.5,3.9,0,3.9C155.2,481.3,155.2,477.4,152.7,477.4z"/>
		<path class="st2" d="M170.7,483.7c-2.5,0-2.5,3.9,0,3.9C173.3,487.7,173.3,483.7,170.7,483.7z"/>
		<path class="st2" d="M181.5,493c-2.5,0-2.5,3.9,0,3.9C184,496.9,184,493,181.5,493z"/>
		<path class="st2" d="M194.2,494c-2.5,0-2.5,3.9,0,3.9C196.7,497.9,196.7,494,194.2,494z"/>
		<path class="st2" d="M204.9,485.2c-2.5,0-2.5,3.9,0,3.9C207.4,489.1,207.4,485.2,204.9,485.2z"/>
		<path class="st2" d="M217.1,472c-2.5,0-2.5,3.9,0,3.9C219.6,476,219.6,472,217.1,472z"/>
		<path class="st2" d="M217.1,488.6c-2.5,0-2.5,3.9,0,3.9C219.6,492.6,219.6,488.6,217.1,488.6z"/>
		<path class="st2" d="M225.9,479.8c-2.5,0-2.5,3.9,0,3.9C228.4,483.8,228.4,479.8,225.9,479.8z"/>
		<path class="st2" d="M206.9,508.1c-2.5,0-2.5,3.9,0,3.9C209.4,512.1,209.4,508.1,206.9,508.1z"/>
		<path class="st2" d="M188.3,512.1c-2.5,0-2.5,3.9,0,3.9C190.8,516,190.8,512.1,188.3,512.1z"/>
		<path class="st2" d="M172.2,510.6c-2.5,0-2.5,3.9,0,3.9C174.7,514.5,174.7,510.6,172.2,510.6z"/>
		<path class="st2" d="M133.7,512.1c-2.5,0-2.5,3.9,0,3.9C136.2,516,136.2,512.1,133.7,512.1z"/>
		<path class="st2" d="M207.3,499.9c-2.5,0-2.5,3.9,0,3.9C209.9,503.8,209.9,499.9,207.3,499.9z"/>
		<path class="st2" d="M233.2,513c-2.5,0-2.5,3.9,0,3.9C235.7,517,235.7,513,233.2,513z"/>
		<path class="st2" d="M230.8,500.4l-0.5,0.5c-1.8,1.8,1,4.6,2.8,2.8c0.2-0.2,0.3-0.3,0.5-0.5C235.4,501.4,232.6,498.6,230.8,500.4z
			"/>
		<path class="st2" d="M237.1,484.2c-2.5,0-2.5,3.9,0,3.9C239.6,488.2,239.6,484.2,237.1,484.2z"/>
		<path class="st2" d="M241.5,494.5c-2.5,0-2.5,3.9,0,3.9C244,498.4,244,494.5,241.5,494.5z"/>
		<path class="st2" d="M240,507.2c-2.5,0-2.5,3.9,0,3.9C242.6,511.1,242.6,507.2,240,507.2z"/>
		<path class="st2" d="M256.2,501.8c-2.5,0-2.5,3.9,0,3.9C258.7,505.7,258.7,501.8,256.2,501.8z"/>
	</g>
	<g>
		<path class="st4" d="M132.8,509.4"/>
		<path class="st4" d="M85.5,509.4"/>
	</g>
	<g>
		<path class="st5" d="M324.8,243.7c-0.2-3-3.7,1.9-2.7-0.9c1.9-5.1,3.3-9.8,5.2-14.8c4.1-11,8-22,11.6-33.1
			c4-12.2,7.9-24.7,7.9-37.5c0-3.7,0.9-1.9,1.3-5.7c0.3-2.9,9.5-0.9,10.4-3.7c2.3-7.1-3.9-24.3,1.3-29.9c5.2-5.6,12.3-9.7,20.1-10.6
			c4.9-0.6,3.4,5.7,7.9,4c5-1.9,15.5-9.5,20.7-10.9c6.7-1.8,14.8-2.7,19.7,2c2.6,2.5,3.7,6.2,4.1,9.7c0.8,7.3-1.5,15.4-7.7,19.9
			c2.1,2.3,4.3,4.7,6.4,7c2.9,3.2,6,7,5.3,11.2c-0.7,3.7-4.2,6.2-7.4,8.4c-4.8,3.2-9.6,6.4-14.3,9.6c1.4,3.8,2.9,7.9,1.6,11.8
			c-1.6,5-7.2,7.7-12.3,9.5c-11.7,4.1-24,6.4-35.8,10.3c-11.8,3.9-23.3,9.9-30.4,19.6c-6.8,9.2-1.2,24.9-13.5,27.7"/>
		<path class="st6" d="M323.8,227.4c-0.3-2.7-1.1-5.3-2-7.8c-4.9-15-9.2-30.2-11.6-45.8c-1.1-7.4-1.7-15-1.7-22.5
			c0-6.3-0.8-14.4,0.9-20.5c1.4-5.3,6.4-4.7,11-4.6c0.9,0,1.8,0.1,2.5-0.5c0.5-0.4,0.7-1,0.9-1.6c2.1-6.3,4.2-12.6,6.3-18.9
			c1.6-4.8,4-10.3,9.2-11.4c1.5-0.3,3.2-0.2,4.7-0.7c2.2-0.7,3.8-2.6,5.2-4.4c5.4-6.6,11.4-13,18.9-17.5c2.7-1.6,5.7-3,8.9-3
			c10.7,0.2,6.4,12.5,4.4,18.3c-1.5,4.7-3.6,9.8-1.5,14.2c3.1,6.6,14.2,8.9,14.2,16.1c0,4.2-4,7.3-7.7,9.6c-3.8,2.5-7.6,5-11.4,7.4
			c-5.8,3.7-12,8.3-13,14.8c0.7,2.4,3.5,3.5,6,3.9c2.5,0.4,5.3,0.3,7.4,1.7c2.2,1.4,3.3,3.9,3.8,6.4c1.2,6-0.2,12.5-3.8,17.6
			c-2.6,3.7-6.3,6.6-10,9.3c-6.1,4.4-12.6,8.5-19.2,12.1c-3.6,2-7.5,4-9.4,7.4c-1.9,3.4-1.6,7.5-1.3,11.3
			c0.9,10.4,1.9,20.7,2.8,31.1c0.1,0.9,0.2,1.9-0.2,2.7c-0.3,0.7,0.7,4.9,0.1,5.4c-2.5,2-0.9,0.2-4.2,0.4c4.7-8.1-2.7-11.5-6.4-17.2
			c-1.7-2.6-3.6-9.2-3.6-12.2C323.9,228.2,323.9,227.8,323.8,227.4z"/>
		<path class="st6" d="M335.4,258.7c0-3-3-7.3-4.2-10c-2.2-4.9-4.5-9.8-6.8-14.8c-4.8-10.7-9.4-21.5-13.8-32.3
			c-4.8-11.9-9.4-24.2-10.4-36.9c-0.3-3.7-1-1.9-1.6-5.6c-0.5-2.8-9.6-0.3-10.6-3c-2.7-7,2.3-24.5-3.2-29.8
			c-5.6-5.2-12.9-9-20.8-9.4c-4.9-0.3-3,5.9-7.6,4.4c-5.1-1.6-16.1-8.5-21.4-9.6c-6.8-1.4-14.9-1.8-19.5,3.1
			c-2.5,2.7-3.3,6.4-3.4,9.9c-0.3,7.4,2.5,15.3,9,19.4c-2,2.5-4,4.9-5.9,7.4c-2.7,3.4-5.6,7.4-4.5,11.5c0.9,3.6,4.6,6,7.9,7.9
			c5,2.9,10,5.8,14.9,8.7c-1.2,3.9-2.4,8.1-0.8,11.9c2,4.8,7.6,7.2,12.9,8.7c11.9,3.4,24.4,4.9,36.4,8.1c12,3.2,23.9,8.5,31.6,17.7
			c7.3,8.8,11.2,30.8,23.7,32.9"/>
		<path class="st5" d="M305.9,198.9c-0.8-2.2-2.2-4.1-3.5-6.1c-7.7-11.5-14.9-23.2-20.5-35.7c-2.7-6-4.9-12.1-6.8-18.4
			c-1.5-5.2-4.1-11.9-4.1-17.3c0-4.7,4.2-5.3,8.1-6.2c0.7-0.2,1.5-0.3,1.9-0.9c0.3-0.4,0.4-1,0.4-1.6c0.2-5.7,0.5-11.4,0.7-17.1
			c0.2-4.3,0.9-9.5,4.9-11.5c1.2-0.6,2.6-0.8,3.7-1.6c1.7-1.1,2.6-3,3.3-4.8c3-6.7,6.5-13.3,11.6-18.6c1.9-1.9,4-3.7,6.7-4.4
			c9-2.1,8.3,9,8,14.3c-0.2,4.2-0.7,8.9,2.1,12.2c4.2,4.8,14,4.3,15.7,10.4c1,3.5-1.7,6.9-4.1,9.7c-2.6,2.9-5.2,5.8-7.8,8.6
			c-3.9,4.4-8.1,9.5-7.3,15.1c1.1,1.8,3.7,2.2,5.9,1.9c2.2-0.2,4.5-0.8,6.6-0.2c2.2,0.7,3.7,2.6,4.7,4.5c2.4,4.8,2.8,10.4,1,15.5
			c-1.3,3.6-3.7,6.8-6.2,9.9c-4.1,5-8.5,9.8-13.2,14.2c-2.5,2.4-5.3,4.9-6.1,8.2c-0.8,3.2,0.4,6.6,1.6,9.7
			c3.2,8.4,6.5,16.9,9.7,25.3c0.3,0.7,0.6,1.5,0.5,2.3c-0.1,0.7,15.8,41.4,15.3,42c-1.6,2.2-5,2.3-7.7,3.2
			c2-7.7-14.6-48.5-19.1-52.4c-2-1.8-5.2-6.9-5.9-9.4C306.1,199.6,306,199.2,305.9,198.9z"/>
	</g>
	<path class="st7" d="M346.7,257.2l-15.4,0.3l-3.7-5.6l-16.6,17.6l-8.8,10.7c5.6,3.7,10.1,6.5,16.1,9.7c0.5,0.3,1.2-0.1,1.8,0.1
		l2.5,0.7l2.6-0.1c2.9,1.2,4,0.3,7,1.3l3.2-0.5l3.2-8.8l3.6-4.2c0,0,3.2-9.4,2.7-10.1c-0.3-0.3-0.1-5,0.1-5.5
		C345.1,262.7,345.8,261,346.7,257.2z"/>
	<path class="st8" d="M305.4,277.2l-2.6,2.1c-3.6,4-0.2,4.9,0.8,5.6c0.4,0.3,3.1,2,4.5,2.2c1.4,0.2,9.7,2.8,11.1,3
		c1.4,0.2,6,0.5,7.1,0.7c1.2,0.2,5.2,0.6,6,0.6c0.8,0,3.3,0,3.7-0.4s1.3-3.1,1.3-3.1l1.9-5l2.5-3.3l1.4-2.2l0.9-4.1
		c0-1-5.9-0.1-6.4,0.1c-0.4,0.2-18.2,1.1-18.2,1.1l-11.4,2.1L305.4,277.2z"/>
	<g>
		<path class="st5" d="M619.1,241.6c-0.2-3-3.7,1.9-2.7-0.9c1.9-5.1,3.3-9.8,5.2-14.8c4.1-11,8-22,11.6-33.1
			c4-12.2,7.9-24.7,7.9-37.5c0-3.7,0.9-1.9,1.3-5.7c0.3-2.9,9.5-0.9,10.4-3.7c2.3-7.1-3.9-24.3,1.3-29.9c5.2-5.6,12.3-9.7,20.1-10.6
			c4.9-0.6,3.4,5.7,7.9,4c5-1.9,15.5-9.5,20.7-10.9c6.7-1.8,14.8-2.7,19.7,2c2.6,2.5,3.7,6.2,4.1,9.7c0.8,7.3-1.5,15.4-7.7,19.9
			c2.1,2.3,4.3,4.7,6.4,7c2.9,3.2,6,7,5.3,11.2c-0.7,3.7-4.2,6.2-7.4,8.4c-4.8,3.2-9.6,6.4-14.3,9.6c1.4,3.8,2.9,7.9,1.6,11.8
			c-1.6,5-7.2,7.7-12.3,9.5c-11.7,4.1-24,6.4-35.8,10.3c-11.8,3.9-23.3,9.9-30.4,19.6c-6.8,9.2-1.2,24.9-13.5,27.7"/>
		<path class="st6" d="M618.1,225.2c-0.3-2.7-1.1-5.3-2-7.8c-4.9-15-9.2-30.2-11.6-45.8c-1.1-7.4-1.7-15-1.7-22.5
			c0-6.3-0.8-14.4,0.9-20.5c1.4-5.3,6.4-4.7,11-4.6c0.9,0,1.8,0.1,2.5-0.5c0.5-0.4,0.7-1,0.9-1.6c2.1-6.3,4.2-12.6,6.3-18.9
			c1.6-4.8,4-10.3,9.2-11.4c1.5-0.3,3.2-0.2,4.7-0.7c2.2-0.7,3.8-2.6,5.2-4.4c5.4-6.6,11.4-13,18.9-17.5c2.7-1.6,5.7-3,8.9-3
			c10.7,0.2,6.4,12.5,4.4,18.3c-1.5,4.7-3.6,9.8-1.5,14.2c3.1,6.6,14.2,8.9,14.2,16.1c0,4.2-4,7.3-7.7,9.6c-3.8,2.5-7.6,5-11.4,7.4
			c-5.8,3.7-12,8.3-13,14.8c0.7,2.4,3.5,3.5,6,3.9c2.5,0.4,5.3,0.3,7.4,1.7c2.2,1.4,3.3,3.9,3.8,6.4c1.2,6-0.2,12.5-3.8,17.6
			c-2.6,3.7-6.3,6.6-10,9.3c-6.1,4.4-12.6,8.5-19.2,12.1c-3.6,2-7.5,4-9.4,7.4c-1.9,3.4-1.6,7.5-1.3,11.3
			c0.9,10.4,1.9,20.7,2.8,31.1c0.1,0.9,0.2,1.9-0.2,2.7c-0.3,0.7,0.7,4.9,0.1,5.4c-2.5,2-0.9,0.2-4.2,0.4c4.7-8.1-2.7-11.5-6.4-17.2
			c-1.7-2.6-3.6-9.2-3.6-12.2C618.2,226,618.1,225.6,618.1,225.2z"/>
		<path class="st6" d="M629.7,256.5c0-3-3-7.3-4.2-10c-2.2-4.9-4.5-9.8-6.8-14.8c-4.8-10.7-9.4-21.5-13.8-32.3
			c-4.8-11.9-9.4-24.2-10.4-36.9c-0.3-3.7-1-1.9-1.6-5.6c-0.5-2.8-9.6-0.3-10.6-3c-2.7-7,2.3-24.5-3.2-29.8
			c-5.6-5.2-12.9-9-20.8-9.4c-4.9-0.3-3,5.9-7.6,4.4c-5.1-1.6-16.1-8.5-21.4-9.6c-6.8-1.4-14.9-1.8-19.5,3.1
			c-2.5,2.7-3.3,6.4-3.4,9.9c-0.3,7.4,2.5,15.3,9,19.4c-2,2.5-4,4.9-5.9,7.4c-2.7,3.4-5.6,7.4-4.5,11.5c0.9,3.6,4.6,6,7.9,7.9
			c5,2.9,10,5.8,14.9,8.7c-1.2,3.9-2.4,8.1-0.8,11.9c2,4.8,7.6,7.2,12.9,8.7c11.9,3.4,24.4,4.9,36.4,8.1c12,3.2,23.9,8.5,31.6,17.7
			c7.3,8.8,11.2,30.8,23.7,32.9"/>
		<path class="st5" d="M600.2,196.8c-0.8-2.2-2.2-4.1-3.5-6.1c-7.7-11.5-14.9-23.2-20.5-35.7c-2.7-6-4.9-12.1-6.8-18.4
			c-1.5-5.2-4.1-11.9-4.1-17.3c0-4.7,4.2-5.3,8.1-6.2c0.7-0.2,1.5-0.3,1.9-0.9c0.3-0.4,0.4-1,0.4-1.6c0.2-5.7,0.5-11.4,0.7-17.1
			c0.2-4.3,0.9-9.5,4.9-11.5c1.2-0.6,2.6-0.8,3.7-1.6c1.7-1.1,2.6-3,3.3-4.8c3-6.7,6.5-13.3,11.6-18.6c1.9-1.9,4-3.7,6.7-4.4
			c9-2.1,8.3,9,8,14.3c-0.2,4.2-0.7,8.9,2.1,12.2c4.2,4.8,14,4.3,15.7,10.4c1,3.5-1.7,6.9-4.1,9.7c-2.6,2.9-5.2,5.8-7.8,8.6
			c-3.9,4.4-8.1,9.5-7.3,15.1c1.1,1.8,3.7,2.2,5.9,1.9c2.2-0.2,4.5-0.8,6.6-0.2c2.2,0.7,3.7,2.6,4.7,4.5c2.4,4.8,2.8,10.4,1,15.5
			c-1.3,3.6-3.7,6.8-6.2,9.9c-4.1,5-8.5,9.8-13.2,14.2c-2.5,2.4-5.3,4.9-6.1,8.2c-0.8,3.2,0.4,6.6,1.6,9.7
			c3.2,8.4,6.5,16.9,9.7,25.3c0.3,0.7,0.6,1.5,0.5,2.3c-0.1,0.7,15.8,41.4,15.3,42c-1.6,2.2-5,2.3-7.7,3.2
			c2-7.7-14.6-48.5-19.1-52.4c-2-1.8-5.2-6.9-5.9-9.4C600.4,197.4,600.3,197.1,600.2,196.8z"/>
	</g>
	<path class="st7" d="M637.4,255l-15.4,0.3l-3.7-5.6l-16.6,17.6l-8.8,10.7c5.6,3.7,10.1,6.5,16.1,9.7c0.5,0.3,1.2-0.1,1.8,0.1
		l2.5,0.7l2.6-0.1c2.9,1.2,4,0.3,7,1.3l3.2-0.5l3.2-8.8l3.6-4.2c0,0,3.2-9.4,2.7-10.1c-0.3-0.3-0.1-5,0.1-5.5
		C635.7,260.5,636.5,258.9,637.4,255z"/>
	<path class="st8" d="M596,275l-2.6,2.1c-3.6,4-0.2,4.9,0.8,5.6c0.4,0.3,3.1,2,4.5,2.2c1.4,0.2,9.7,2.8,11.1,3s6,0.5,7.1,0.7
		c1.2,0.2,5.2,0.6,6,0.6c0.8,0,3.3,0,3.7-0.4c0.4-0.4,1.3-3.1,1.3-3.1l1.9-5l2.5-3.3l1.4-2.2l0.9-4.1c0-1-5.9-0.1-6.4,0.1
		c-0.4,0.2-18.2,1.1-18.2,1.1l-11.4,2.1L596,275z"/>
	<g>
		<path class="st5" d="M905.2,239.7c-0.2-3-3.7,1.9-2.7-0.9c1.9-5.1,3.3-9.8,5.2-14.8c4.1-11,8-22,11.6-33.1
			c4-12.2,7.9-24.7,7.9-37.5c0-3.7,0.9-1.9,1.3-5.7c0.3-2.9,9.5-0.9,10.4-3.7c2.3-7.1-3.9-24.3,1.3-29.9c5.2-5.6,12.3-9.7,20.1-10.6
			c4.9-0.6,3.4,5.7,7.9,4c5-1.9,15.5-9.5,20.7-10.9c6.7-1.8,14.8-2.7,19.7,2c2.6,2.5,3.7,6.2,4.1,9.7c0.8,7.3-1.5,15.4-7.7,19.9
			c2.1,2.3,4.3,4.7,6.4,7c2.9,3.2,6,7,5.3,11.2c-0.7,3.7-4.2,6.2-7.4,8.4c-4.8,3.2-9.6,6.4-14.3,9.6c1.4,3.8,2.9,7.9,1.6,11.8
			c-1.6,5-7.2,7.7-12.3,9.5c-11.7,4.1-24,6.4-35.8,10.3c-11.8,3.9-23.3,9.9-30.4,19.6c-6.8,9.2-1.2,24.9-13.5,27.7"/>
		<path class="st6" d="M904.2,223.4c-0.3-2.7-1.1-5.3-2-7.8c-4.9-15-9.2-30.2-11.6-45.8c-1.1-7.4-1.7-15-1.7-22.5
			c0-6.3-0.8-14.4,0.9-20.5c1.4-5.3,6.4-4.7,11-4.6c0.9,0,1.8,0.1,2.5-0.5c0.5-0.4,0.7-1,0.9-1.6c2.1-6.3,4.2-12.6,6.3-18.9
			c1.6-4.8,4-10.3,9.2-11.4c1.5-0.3,3.2-0.2,4.7-0.7c2.2-0.7,3.8-2.6,5.2-4.4c5.4-6.6,11.4-13,18.9-17.5c2.7-1.6,5.7-3,8.9-3
			c10.7,0.2,6.4,12.5,4.4,18.3c-1.5,4.7-3.6,9.8-1.5,14.2c3.1,6.6,14.2,8.9,14.2,16.1c0,4.2-4,7.3-7.7,9.6c-3.8,2.5-7.6,5-11.4,7.4
			c-5.8,3.7-12,8.3-13,14.8c0.7,2.4,3.5,3.5,6,3.9c2.5,0.4,5.3,0.3,7.4,1.7c2.2,1.4,3.3,3.9,3.8,6.4c1.2,6-0.2,12.5-3.8,17.6
			c-2.6,3.7-6.3,6.6-10,9.3c-6.1,4.4-12.6,8.5-19.2,12.1c-3.6,2-7.5,4-9.4,7.4c-1.9,3.4-1.6,7.5-1.3,11.3
			c0.9,10.4,1.9,20.7,2.8,31.1c0.1,0.9,0.2,1.9-0.2,2.7c-0.3,0.7,0.7,4.9,0.1,5.4c-2.5,2-0.9,0.2-4.2,0.4c4.7-8.1-2.7-11.5-6.4-17.2
			c-1.7-2.6-3.6-9.2-3.6-12.2C904.3,224.1,904.3,223.8,904.2,223.4z"/>
		<path class="st6" d="M915.8,254.6c0-3-3-7.3-4.2-10c-2.2-4.9-4.5-9.8-6.8-14.8c-4.8-10.7-9.4-21.5-13.8-32.3
			c-4.8-11.9-9.4-24.2-10.4-36.9c-0.3-3.7-1-1.9-1.6-5.6c-0.5-2.8-9.6-0.3-10.6-3c-2.7-7,2.3-24.5-3.2-29.8s-12.9-9-20.8-9.4
			c-4.9-0.3-3,5.9-7.6,4.4c-5.1-1.6-16.1-8.5-21.4-9.6c-6.8-1.4-14.9-1.8-19.5,3.1c-2.5,2.7-3.3,6.4-3.4,9.9
			c-0.3,7.4,2.5,15.3,9,19.4c-2,2.5-4,4.9-5.9,7.4c-2.7,3.4-5.6,7.4-4.5,11.5c0.9,3.6,4.6,6,7.9,7.9c5,2.9,10,5.8,14.9,8.7
			c-1.2,3.9-2.4,8.1-0.8,11.9c2,4.8,7.6,7.2,12.9,8.7c11.9,3.4,24.4,4.9,36.4,8.1c12,3.2,23.9,8.5,31.6,17.7
			c7.3,8.8,11.2,30.8,23.7,32.9"/>
		<path class="st5" d="M886.3,194.9c-0.8-2.2-2.2-4.1-3.5-6.1c-7.7-11.5-14.9-23.2-20.5-35.7c-2.7-6-4.9-12.1-6.8-18.4
			c-1.5-5.2-4.1-11.9-4.1-17.3c0-4.7,4.2-5.3,8.1-6.2c0.7-0.2,1.5-0.3,1.9-0.9c0.3-0.4,0.4-1,0.4-1.6c0.2-5.7,0.5-11.4,0.7-17.1
			c0.2-4.3,0.9-9.5,4.9-11.5c1.2-0.6,2.6-0.8,3.7-1.6c1.7-1.1,2.6-3,3.3-4.8c3-6.7,6.5-13.3,11.6-18.6c1.9-1.9,4-3.7,6.7-4.4
			c9-2.1,8.3,9,8,14.3c-0.2,4.2-0.7,8.9,2.1,12.2c4.2,4.8,14,4.3,15.7,10.4c1,3.5-1.7,6.9-4.1,9.7c-2.6,2.9-5.2,5.8-7.8,8.6
			c-3.9,4.4-8.1,9.5-7.3,15.1c1.1,1.8,3.7,2.2,5.9,1.9c2.2-0.2,4.5-0.8,6.6-0.2c2.2,0.7,3.7,2.6,4.7,4.5c2.4,4.8,2.8,10.4,1,15.5
			c-1.3,3.6-3.7,6.8-6.2,9.9c-4.1,5-8.5,9.8-13.2,14.2c-2.5,2.4-5.3,4.9-6.1,8.2c-0.8,3.2,0.4,6.6,1.6,9.7
			c3.2,8.4,6.5,16.9,9.7,25.3c0.3,0.7,0.6,1.5,0.5,2.3c-0.1,0.7,15.8,41.4,15.3,42c-1.6,2.2-5,2.3-7.7,3.2
			c2-7.7-14.6-48.5-19.1-52.4c-2-1.8-5.2-6.9-5.9-9.4C886.5,195.5,886.4,195.2,886.3,194.9z"/>
	</g>
	<path class="st7" d="M927.1,253.2l-15.4,0.3l-3.7-5.6l-16.6,17.6l-8.8,10.7c5.6,3.7,10.1,6.5,16.1,9.7c0.5,0.3,1.2-0.1,1.8,0.1
		l2.5,0.7l2.6-0.1c2.9,1.2,4,0.3,7,1.3l3.2-0.5l3.2-8.8l3.6-4.2c0,0,3.2-9.4,2.7-10.1c-0.3-0.3-0.1-5,0.1-5.5
		C925.5,258.6,926.2,257,927.1,253.2z"/>
	<path class="st8" d="M907.5,273.1l-2.6,2.1c-3.6,4-0.2,4.9,0.8,5.6c0.4,0.3,3.1,2,4.5,2.2s9.7,2.8,11.1,3c1.4,0.2,6,0.5,7.1,0.7
		c1.2,0.2,5.2,0.6,6,0.6s3.3,0,3.7-0.4c0.4-0.4,1.3-3.1,1.3-3.1l1.9-5l2.5-3.3l1.4-2.2l0.9-4.1c0-1-5.9-0.1-6.4,0.1
		c-0.4,0.2-18.2,1.1-18.2,1.1l-11.4,2.1L907.5,273.1z"/>
	<path class="st9" d="M937.2,476.2"/>
	<g>
		<polygon class="st10" points="261.1,266.4 292.2,395.5 375.1,395.8 404.2,268.6 		"/>
		<g>
			
				<rect x="240.5" y="259.8" transform="matrix(1 -2.747966e-03 2.747966e-03 1 -0.7283 0.9073)" class="st11" width="178.7" height="11.3"/>
			<path class="st11" d="M257,271.3l27.6,130.3l94.6-0.3l25.9-130.5L257,271.3z M292.5,350c-0.4-0.1-0.7-0.2-1.2-0.2l-9.7,0
				l-0.2-60.4l10.9,0L292.5,350z M315,389.3l-10.9,0l-0.3-100l10.9,0L315,389.3z M337.4,389.2l-10.9,0l-0.3-100l10.9,0L337.4,389.2z
				 M359.7,389.2l-10.9,0l-0.3-100l10.9,0L359.7,389.2z M380.8,349.5l-9.7,0l-0.2-60.4l10.9,0l0.2,60.7
				C381.5,349.7,381.2,349.5,380.8,349.5z"/>
		</g>
	</g>
	<g>
		<polygon class="st10" points="553.9,266.4 585.1,395.5 667.9,395.8 697.1,268.6 		"/>
		<g>
			
				<rect x="533.3" y="259.8" transform="matrix(1 -2.747966e-03 2.747966e-03 1 -0.7272 1.7121)" class="st11" width="178.7" height="11.3"/>
			<path class="st11" d="M549.9,271.3l27.6,130.3l94.6-0.3L698,270.9L549.9,271.3z M585.4,350c-0.4-0.1-0.7-0.2-1.2-0.2l-9.7,0
				l-0.2-60.4l10.9,0L585.4,350z M607.9,389.3l-10.9,0l-0.3-100l10.9,0L607.9,389.3z M630.2,389.2l-10.9,0l-0.3-100l10.9,0
				L630.2,389.2z M652.6,389.2l-10.9,0l-0.3-100l10.9,0L652.6,389.2z M673.6,349.5l-9.7,0l-0.2-60.4l10.9,0l0.2,60.7
				C674.4,349.7,674.1,349.5,673.6,349.5z"/>
		</g>
	</g>
	<g>
		<polygon class="st10" points="843.2,266.4 874.3,395.5 957.2,395.8 986.3,268.6 		"/>
		<g>
			
				<rect x="822.6" y="259.8" transform="matrix(1 -2.747966e-03 2.747966e-03 1 -0.7261 2.5069)" class="st11" width="178.7" height="11.3"/>
			<path class="st11" d="M839.1,271.3l27.6,130.3l94.6-0.3l25.9-130.5L839.1,271.3z M874.6,350c-0.4-0.1-0.7-0.2-1.2-0.2l-9.7,0
				l-0.2-60.4l10.9,0L874.6,350z M897.1,389.3l-10.9,0l-0.3-100l10.9,0L897.1,389.3z M919.4,389.2l-10.9,0l-0.3-100l10.9,0
				L919.4,389.2z M941.8,389.2l-10.9,0l-0.3-100l10.9,0L941.8,389.2z M962.9,349.5l-9.7,0l-0.2-60.4l10.9,0l0.2,60.7
				C963.6,349.7,963.3,349.5,962.9,349.5z"/>
		</g>
	</g>
	<path class="st12" d="M639.9,334.5c-31.4,40.3-30.4,56.9-22.5,64.4c3.8,3.6,7.4,3.3,12.5,8.2c15.3,14.6,5.8,38.5,3.3,44.8
		c-9.9,25-27.3,28.8-26.7,44.8c0.4,12,10.7,21.6,19.2,27.8"/>
	<path class="st12" d="M936.3,334.5c-31.4,40.3-30.4,56.9-22.5,64.4c3.8,3.6,7.4,3.3,12.5,8.2c15.3,14.6,5.8,38.5,3.3,44.8
		c-9.9,25-27.3,28.8-26.7,44.8c0.4,12,10.7,21.6,19.2,27.8"/>
	<path class="st12" d="M343.4,334.5c-31.4,40.3-30.4,56.9-22.5,64.4c3.8,3.6,7.4,3.3,12.5,8.2c15.3,14.6,5.8,38.5,3.3,44.8
		c-9.9,25-27.3,28.8-26.7,44.8c0.4,12,10.7,21.6,19.2,27.8"/>
</g>
</svg>
